<?xml version="1.0" encoding="utf-8"?>
<!-- Generator: Adobe Illustrator 16.0.0, SVG Export Plug-In . SVG Version: 6.00 Build 0)  -->
<!DOCTYPE svg PUBLIC "-//W3C//DTD SVG 1.1//EN" "http://www.w3.org/Graphics/SVG/1.1/DTD/svg11.dtd">
<svg version="1.1" id="Layer_1" xmlns="http://www.w3.org/2000/svg" xmlns:xlink="http://www.w3.org/1999/xlink" x="0px" y="0px"
	 width="640px" height="430px" viewBox="0 0 640 430" enable-background="new 0 0 640 430" xml:space="preserve">
<g>
	<g>
		<path fill-rule="evenodd" clip-rule="evenodd" fill="#FC440C" d="M77.007,126.917v-10.685c-5.477-0.019-9.679-2.088-11.72-5.515
			c-2.851-4.791-1.378-16.048-1.378-23.093V31.444H50.467v59.283c-0.001,8.7-1.293,20.505,2.067,26.195
			C56.747,124.051,65.55,127.024,77.007,126.917z M169.034,106.237c1.09,6.885,5.474,12.598,6.894,19.301h15.854
			c-13.096-30.788-26.195-61.584-39.292-92.371h-3.792c-0.86,0.47-2.528,5.935-3.101,7.237c-1.997,4.528-4.175,9.52-6.549,14.132
			c-4.01,7.79-7.395,15.892-11.03,24.126c-3.569,8.087-8.143,16.375-11.719,24.472c-2.05,4.645-4.264,9.054-6.204,13.442
			c-1.243,2.813-1.885,6.112-3.791,8.272v0.689h15.854c1.157-0.626,1.509-4.196,2.067-5.514c1.745-4.116,4.918-9.027,5.516-13.788
			H169.034z M137.325,88.659c2.613-6.035,4.783-12.135,7.238-17.923c1.708-4.026,2.459-9.592,5.17-12.752
			c0.222-0.595,0.068-0.337,0.345-0.689c1.251,4.625,3.427,9.211,5.169,13.442c2.12,5.146,3.042,10.025,5.17,15.166
			c1.36,3.284,3.705,7.136,4.136,11.03h-30.675C134.624,93.913,136.208,91.237,137.325,88.659z M99.065,57.638
			c0.575-7.812,1.149-15.626,1.724-23.438H87.691c0.574,7.927,1.149,15.856,1.724,23.783C92.413,58.011,96.673,58.446,99.065,57.638
			z M295.529,116.233c-4.272,1.315-10.75,0.679-13.787-1.378c-7.335-4.974-4.918-33.538-4.825-46.531h21.024v-9.306h-21.024V40.405
			c-4.48,1.494-8.962,2.988-13.443,4.481v14.132h-8.961v9.306h8.961v29.641c0,5.965-0.405,12.294,1.378,16.544
			c2.146,5.112,6.522,8.499,11.719,10.685c3.075,1.294,9.377,2.816,14.476,1.724c4.136-0.574,8.274-1.149,12.407-1.724
			c-0.175-2.399-0.983-8.702-2.066-10.339C301.227,114.691,296.866,115.821,295.529,116.233z M495.438,71.77
			c1.854,0.794,4.318,1.297,6.547,1.379c10.761,0.394,17.245-3.208,19.992-10.685c0.717-1.954,0.181-3.538,0.689-5.859
			c0.347-1.583,0.505-4.15,0-6.205c-0.919-2.757-1.839-5.515-2.757-8.272h-6.551c0.917,2.688,2.857,5.057,3.793,7.928
			c1.909,5.858-0.52,12.713-4.138,15.166c-1.937,1.314-4.848,1.616-7.58,2.068c-0.809-2.415-0.346-6.634-0.346-9.651
			c-0.115-5.399-0.23-10.799-0.345-16.199c-7.529-0.043-13.924,1.672-16.89,6.204C481.876,56.781,488.467,68.785,495.438,71.77z
			 M490.957,54.881c0.395-1.648,0.113-2.47,1.034-3.446c0.917-2.772,4.719-4.029,8.271-4.136c0.115,6.663,0.23,13.327,0.346,19.991
			C494.587,66.663,489.266,61.954,490.957,54.881z M241.76,57.983c-11.75-2.59-21.256,4.656-25.161,11.375h-0.345v-10.34h-13.442
			v66.521h13.442V97.275c0-5.234-0.594-11.198,0.689-15.51c1.281-4.304,3.871-7.394,6.894-9.996
			c3.806-3.276,13.555-6.55,18.611-1.723c2.666-0.595,4.603-8.832,6.549-11.029C247.164,57.775,244.35,58.554,241.76,57.983z
			 M522.322,82.11c-11.717,0.23-23.439,0.459-35.158,0.689v5.86c11.833-0.229,23.671-0.46,35.503-0.69
			C522.692,86.02,522.807,83.525,522.322,82.11z M481.308,82.455h-6.205v6.549h6.205V82.455z M523.011,115.198v-5.859
			c-2.063-0.045-6.199-0.552-7.582,0.345h-17.923c-0.453-0.291-0.694-1.578-1.034-2.068c-3.065-4.417-3.084-6.733-2.757-13.787
			c-1.137-0.031-2.468-0.082-3.103,0.345c-1.229-0.008-2.329,0.076-3.103,0.344c-0.053,6.957,1.12,12.1,5.172,14.821v0.345
			c-1.725,0.115-3.448,0.23-5.172,0.344c-0.025,1.95-0.139,4.444,0.345,5.859C499.573,115.658,511.293,115.428,523.011,115.198z
			 M497.506,154.836c1.843,0.767,4.252,1.003,6.549,1.035c12.859,0.169,17.189-4.458,19.646-14.821c0.534-2.253,0.619-6.232,0-8.617
			c-0.662-2.547-1.693-5.327-2.758-7.583h-6.549c0.897,2.439,2.9,4.572,3.792,7.238c3.524,10.55-2.749,17.117-11.719,17.923
			c0.046-2.579,0.813-8.191-0.346-9.996c0.029-4.745,1.002-11.821-0.345-15.855c-7.798-0.001-13.898,1.753-16.89,6.549
			C482.675,140.676,490.506,151.924,497.506,154.836z M491.991,136.569c1.048-4.078,4.56-6.528,9.65-6.549
			c-0.038,3.563-0.992,16.491,0.344,18.611c-0.137,0.708-0.085,0.665-0.344,1.034C497.18,151.884,490.317,143.077,491.991,136.569z
			 M68.735,253.066c8.359,2.242,24.928-0.102,28.262-4.824h0.689v4.48h13.787v-94.095H97.687v30.675
			c-1.411-0.472-2.22-1.527-3.447-2.068c-2.173-0.956-4.883-1.498-7.238-2.067c-19.793-4.788-35.19,11.197-39.981,23.092
			c-1.423,3.534-1.353,7.897-2.068,12.063c-0.598,3.482,0.947,8.793,1.723,11.376C50.077,243.002,57.219,249.98,68.735,253.066z
			 M68.735,199.298c2.14-1.557,5.229-2.972,7.927-3.792c1.421-0.432,3.041-0.022,4.135-0.688c5.257,0.005,9.573,0.334,12.753,2.413
			c1.526,0.997,2.591,2.769,4.136,3.791v27.229c0,2.718,0.863,8.401-0.345,10.34c-0.796,1.687-2.395,1.977-4.135,2.758
			c-8.979,4.026-20.049,2.312-26.885-2.758C54.759,230.019,59.1,206.306,68.735,199.298z M494.748,188.27
			c2.104,0.883,4.674,0.625,6.55,0c8.458-2.825,5.402-10.057,8.617-17.579c0.447-1.047,1.493-1.813,2.067-2.757
			c0.594-0.222,0.337-0.067,0.689-0.345c3.494-0.033,3.987,0.797,5.858,2.068c1.527,6.466,1.01,15.188-3.447,18.613v0.345h6.895
			c1.517-1.07,1.83-6.826,2.413-9.307c2.225-9.477-3.049-17.81-11.719-17.923c-2.528,1.578-4.706,0.899-6.55,3.447
			c-2.481,3.434-1.951,8.493-3.446,13.097c-0.473,1.46-1.446,2.83-2.068,4.136c-1.563,0.442-3.695,1.215-5.169,0
			c-4.847-3.241-2.646-15.425,1.033-18.267v-0.689h-6.204c-1.265,0.629-1.253,3.646-1.724,5.169
			C486.061,176.356,488.558,185.666,494.748,188.27z M192.127,252.723v-66.522h-13.442v46.875
			c-1.71,5.387-13.588,13.076-22.748,11.029c-4.945-1.104-8.462-2.782-10.685-6.549c-2.251-3.813-1.724-10.664-1.724-16.543v-34.813
			h-13.442v34.122c0,5.799-0.73,12.813,0.689,17.578c2.056,6.905,6.039,11.099,12.408,13.789c3.492,1.474,10.051,3.712,15.854,2.412
			c2.627-0.59,5.481-1.071,7.928-2.068c4.689-1.908,8.015-4.747,11.374-7.928v-0.345h0.345v8.962H192.127z M524.046,197.576
			c-11.717,0.229-23.439,0.458-35.158,0.689v5.858c11.833-0.229,23.671-0.459,35.503-0.688
			C524.416,201.485,524.53,198.99,524.046,197.576z M476.826,204.467h6.203v-6.547h-6.203V204.467z M489.578,238.591v5.86
			c10.06,0.117,25.743,1.847,32.055-2.414c5.977-4.032,4.682-16.611-0.689-20.336c0.578-0.945,1.932-0.775,3.447-0.688v-0.346h0.344
			c-0.114-1.838-0.229-3.676-0.344-5.515c-11.719,0.115-23.439,0.23-35.157,0.345v5.86c3.513,0.037,16.179,0.972,18.268-0.345h8.272
			c1.655,1.059,6.006,10.646,3.446,13.785C517.334,240.189,497.633,238.739,489.578,238.591z M493.715,278.229
			c-0.115,0.229-0.23,0.459-0.345,0.689h-3.446c-0.026,1.949-0.141,4.445,0.344,5.859c11.717-0.23,23.438-0.461,35.157-0.69v-5.858
			c-2.065-0.046-6.201-0.553-7.583,0.345h-18.958c-1.444-0.682-2.353-4.012-3.102-5.516c-0.831-1.666-1.907-6.303-0.344-8.271
			c1.704-4.845,22.218-3.933,29.642-3.791v-5.86c-7.968-0.089-26.711-0.786-31.365,2.068
			C487.348,261.109,487.738,274.063,493.715,278.229z M115.266,343.716c-3.286-7.868-11.84-13.705-21.714-14.821
			c1.319-1.002,3.197-0.987,4.825-1.724c3.015-1.363,7.078-4.646,8.962-7.237c5.426-7.467,2.875-16.35-1.724-22.404
			c-9.486-12.486-34.733-8.821-55.147-8.615v91.337c25.508,0.11,51.273,2.399,62.041-12.407c1.373-1.891,2.691-4.565,3.447-6.894
			c0.945-2.919,1.101-8.471,0.344-11.719C115.785,347.019,116.039,345.565,115.266,343.716z M64.943,298.908
			c13.233-0.323,28.007-1.981,31.021,8.961c0.68,2.47-0.154,6.407-0.689,7.928c-3.787,10.758-16.588,9.565-30.331,9.307V298.908z
			 M101.479,354.4c-0.787,3.541-0.741,5.792-2.413,8.272c-5.594,8.301-21.176,7.94-34.122,6.895v-34.813
			c15.945-0.192,32.041-1.517,36.19,11.029C101.922,348.168,102.036,351.895,101.479,354.4z M222.458,288.568
			c-4.388,3.029-6.829,2.279-6.204,9.65c0.804,1.033,1.608,2.069,2.413,3.103c3.888,2.835,10.75,1.76,13.098-1.724
			C236.081,293.189,228.971,288.333,222.458,288.568z M499.229,323.381c1.584,0.673,3.555,1.003,5.17,1.378
			c3.555,0.823,8.444-0.23,10.685-1.034c12.059-4.322,14.363-17.45,8.273-29.986h-6.55c6.132,9.987,7.729,23.797-7.927,25.161
			c-0.114-8.616-0.229-17.234-0.344-25.85c-8.188-0.052-14.775,1.915-17.579,7.238C485.905,309.876,492.664,320.59,499.229,323.381z
			 M504.055,298.908c0.115,6.664,0.229,13.328,0.344,19.991C491.979,317.699,490.106,299.082,504.055,298.908z M191.092,326.481
			c-6.22-10.096-17.084-14.346-33.777-14.132c-2.095,1.295-7.202,1.075-9.65,2.069c-8.563,3.476-15.118,9.725-18.612,18.267
			c-1.025,2.504-1.457,5.588-2.069,8.271c-0.876,3.844-0.431,8.721,0.345,12.065c0.576,2.484,0.304,4.285,1.034,6.547
			c3.615,11.219,10.838,17.224,22.403,20.682c4.37,1.307,12.324,2.346,17.923,1.033c12.755-2.987,21.583-9.33,25.506-21.024
			c1-2.981,0.61-5.481,1.378-8.961c0.878-3.978,0.636-10.369-0.345-14.132C194.27,333.485,192.944,329.488,191.092,326.481z
			 M181.098,352.677c-2.552,11.075-5.898,16.775-16.889,19.303c-1.746,0.401-4.649-0.076-5.859-0.346
			c-4.447-0.986-7.004-1.279-9.996-3.446c-6.798-4.924-9.465-21.548-5.86-32.399c1.624-4.888,5.505-10.015,9.996-12.063
			c1.833-0.836,4.479-0.646,6.204-1.723c11.584-0.156,17.675,3.438,21.025,11.374c1.561,3.698,0.74,7.164,1.724,11.719
			C181.902,347.227,181.602,350.491,181.098,352.677z M276.227,341.302c-7.231-3.048-14.627-3.97-14.132-13.785
			c1.265-1.32,2.084-2.909,3.792-3.792c7.199-3.722,19.493,0.041,23.437,4.137c2.394-2.588,2.034-7.824,4.136-10.686v-0.345
			c-7.999-1.966-14.681-4.695-25.505-4.481c-1.5,0.921-4.081,0.469-5.859,1.034c-3.544,1.133-6.933,2.801-9.65,4.826
			c-5.002,3.728-6.351,14.376-2.414,20.336c4.019,6.08,12.58,9.427,19.647,12.407c4.876,2.058,10.86,3.691,12.408,8.962
			c0.752,1.055,0.637,2.567,0.345,3.792c-1.423,5.952-3.348,6.169-9.307,7.582c-6.414,1.523-17.915-3.16-21.025-6.203
			c-2.488,2.598-2.469,7.61-4.825,10.339c0.826,3.53,11.004,4.516,15.166,5.517c16.142,3.879,31.465-3.158,34.467-15.167
			c1.305-5.216-1.073-10.231-2.757-12.752C290.17,347.063,283.181,344.235,276.227,341.302z M206.258,323.725h10.685v56.526h13.441
			v-66.522h-24.126V323.725z M509.225,378.184c-2.735,0-6.464-0.364-8.617,0.344c-1.375-2.074-7.093-9.348-3.79-13.441
			c1.647-4.684,22.596-3.921,29.64-3.793v-5.857c-5.744,0.112-11.489,0.229-17.232,0.344c-2.123,0-6.132-0.561-7.583,0.344
			c-2.955-0.268-8.2-9.787-5.17-13.442c1.685-4.818,22.231-3.928,29.642-3.789v-5.86c-4.294-0.044-9.741-0.437-13.441,0.345
			c-5.704,1.202-12.035-0.848-16.544,1.033c-8.824,3.681-6.686,17.948-0.346,22.749c-1.305,1.627-3.557,2.445-4.48,4.48
			c-2.525,5.559,0.113,13.674,3.792,16.199v0.689h-3.792c0.208,1.686,0.369,3.729,0.345,5.86c11.717-0.115,23.438-0.23,35.157-0.346
			v-6.204C521.51,378.195,515.058,378.184,509.225,378.184z"/>
	</g>
</g>
<g>
	<g>
		<path fill-rule="evenodd" clip-rule="evenodd" fill="#ED1314" d="M423.746,16.278c-3.251,0-13.861-0.885-15.854,0.345H27.719
			c-3.608,0-8.746-0.632-11.719,0.345v393.27h385.688c2.16,0,5.46-0.448,6.547,0.689h195.43c5.587,0,15.715,1.173,20.336-0.344
			V16.278H423.746z M407.893,399.209H27.374V27.652h380.519V399.209z M612.281,399.209H419.609V27.652h192.672V399.209z"/>
	</g>
</g>
</svg>
